<?xml version="1.0" encoding="UTF-8"?>
<svg width="61px" height="71px" viewBox="188 77 61 71" xmlns="http://www.w3.org/2000/svg" xmlns:xlink="http://www.w3.org/1999/xlink" version="1.1">
 <!-- Generated by Pixelmator Pro 1.5.5 -->
 <path id="B" d="M188.584 77.361 L188.584 147.501 M248.153 128.063 C248.153 140.087 237.933 147.501 221.7 147.501 L188.584 147.501 188.584 134.576 219.797 134.576 C227.212 134.576 231.821 131.469 231.821 126.057 231.821 120.948 227.212 117.841 219.797 117.943 L188.584 117.943 188.584 105.617 219.797 105.617 C225.809 105.617 229.417 102.712 229.417 97.803 229.417 92.992 225.809 90.187 219.797 90.287 L188.584 90.287 188.584 77.361 220.599 77.361 C236.029 77.361 245.648 84.075 245.648 94.896 245.648 102.411 241.038 108.323 233.524 110.327 242.642 112.031 248.153 118.844 248.153 128.063 Z" fill="none"  stroke-width="1" stroke-opacity="1" stroke-linejoin="round"/>
</svg>
