<svg width="67" height="75" viewBox="0 0 67 75" fill="none" xmlns="http://www.w3.org/2000/svg">
<path d="M66 61.1843L45.4973 38.3574L66 61.1843ZM65.9002 12.8938L30.1253 57.5416L65.9002 12.8938ZM66 61.1843C58.5989 68.977 47.9005 74 37.7 74C16.7991 74 1 58.1075 1 37.2943C1 35.8342 1.09978 34.4079 1.25547 33.0009C1.30038 32.6029 1.37522 32.2151 1.43111 31.8212C1.57681 30.8102 1.75047 29.8126 1.97402 28.8344C2.01594 28.6492 2.0319 28.4507 2.07681 28.2665C2.08779 28.2809 2.09778 28.2901 2.10876 28.3034C6.02886 12.2461 20.3071 1 38.2998 1C38.698 1 39.0992 1.05321 39.5004 1.06856L39.5254 1.03582C39.8677 1.04809 40.211 1.10437 40.5523 1.12688C41.2978 1.17497 42.0403 1.22818 42.7868 1.32538C43.2768 1.38882 43.7638 1.48193 44.2548 1.56481C44.9993 1.69169 45.7408 1.81857 46.4824 1.99047C46.9784 2.10712 47.4683 2.25446 47.9633 2.38952C48.6829 2.587 49.4015 2.77937 50.112 3.01675C50.628 3.18967 51.132 3.39841 51.6409 3.59282C52.3116 3.84862 52.9852 4.09419 53.6429 4.38478C54.1878 4.62831 54.7117 4.90663 55.2457 5.17061C55.8435 5.46734 56.4462 5.7477 57.0261 6.07308C57.6169 6.40256 58.1788 6.77501 58.7506 7.13518C59.2446 7.44521 59.7516 7.73478 60.2286 8.0663C60.8893 8.52266 61.5071 9.02403 62.1318 9.51722C62.4861 9.79758 62.8613 10.0534 63.2017 10.346C64.1517 11.1533 65.0539 12.0016 65.9002 12.8938L56.6997 24.3773C51.9004 18.7384 44.9993 15.0467 38.4994 15.0467C26.4996 15.0467 17.2004 24.582 17.2004 37.0907C17.2004 49.5984 26.4996 59.2361 38.4994 59.2361C44.8007 59.2361 51.6998 55.9546 56.6997 50.8294L66 61.1843Z" />
</svg>
