<svg width="78" height="73" viewBox="0 0 78 73" fill="none" xmlns="http://www.w3.org/2000/svg">
<path d="M65.088 10.141L12.745 62.443L65.088 10.141ZM39.284 58.384C33.196 58.384 27.61 55.776 23.632 51.556L23.678 51.508L54.269 20.917C58.133 24.815 60.526 30.261 60.526 36.44C60.526 48.765 51.008 58.384 39.284 58.384ZM65.013 10.175L65.088 10.141C58.418 4.26799 49.353 0.769012 39.082 0.769012C17.64 0.769012 1.40799 15.9 1.40799 36.34C1.40799 46.801 5.709 55.957 12.797 62.389L12.745 62.443C19.443 68.545 28.641 72.212 39.082 72.212C60.526 72.212 76.76 56.681 76.76 36.44C76.76 25.804 72.314 16.569 65.013 10.175Z" />
</svg>
