<svg width="81" height="89" viewBox="0 0 81 89" fill="none" xmlns="http://www.w3.org/2000/svg">
<path d="M66.529 12.408L14.443 64.496L66.529 12.408ZM38.472 58.384C33.518 58.384 28.897 56.652 25.198 53.739L55.537 23.4C58.151 26.996 59.716 31.475 59.716 36.441C59.716 48.766 50.196 58.384 38.472 58.384ZM73.944 69.707C69.534 73.115 65.026 75.219 61.62 75.219C58.212 75.219 54.905 73.215 52.1 69.908C66.329 64.797 75.949 52.072 75.949 36.441C75.949 26.985 72.437 18.639 66.529 12.408C59.728 5.23499 49.748 0.869995 38.272 0.869995C16.829 0.869995 0.596008 16 0.596008 36.441C0.596008 48.064 5.91099 58.044 14.443 64.496C20.62 69.168 28.474 72.003 37.271 72.214C42.18 81.832 50.297 87.744 59.816 87.744C66.63 87.744 74.244 84.839 79.656 80.028L73.944 69.707Z" />
</svg>
