<svg width="56" height="73" viewBox="0 0 56 73" fill="none" xmlns="http://www.w3.org/2000/svg">
<path d="M1.00267 21.74V64.3467L1 64.352C8.52 69.2707 18.1387 72.344 27.7573 72.344C28.0707 72.344 28.3733 72.3213 28.6827 72.3147C43.7547 72.0227 55.212 64.6493 55.212 51.2M1.00267 21.74C1.00267 9.936 10.4106 2.19734 24.7266 1.136V1.06133C25.6373 1.02666 26.7893 1 28.1573 1C37.9786 1 48.1973 4.00535 55.212 8.61468L55.212 51.2M1.00267 21.74C1.00267 46.592 38.3773 38.8747 38.3773 52.1013C38.3773 56.2427 34.744 58.6 28.6826 58.78V58.7813C28.436 58.788 28.212 58.8147 27.9586 58.8147C20.5426 58.8147 10.3213 54.708 3.10666 48.2947M55.212 51.2C55.312 25.9493 17.9373 33.1627 17.9373 20.2373C17.9373 16.968 20.6107 15.1107 24.7267 14.6493C25.4027 14.5747 26.1067 14.528 26.8547 14.528C32.4653 14.528 41.2853 17.332 48.6987 21.7413"  stroke-miterlimit="10"/>
</svg>
